<svg xmlns="http://www.w3.org/2000/svg" viewBox="0 0 400 60" width="400" height="60">
  <g fill="#C4B49A">
    <!-- Center floral motif -->
    <path d="M200 30c-2-3-5-5-8-5-4 0-7 3-7 7s3 7 7 7c3 0 6-2 8-5z"/>
    <path d="M200 30c2-3 5-5 8-5 4 0 7 3 7 7s-3 7-7 7c-3 0-6-2-8-5z"/>
    <!-- Left scrollwork -->
    <path d="M196 30c-5-8-12-14-20-16-2-1-4 1-3 3 2 5 7 9 12 11-5 1-10 4-13 9-1 2 1 4 3 3 6-2 11-6 15-10h6z"/>
    <!-- Right scrollwork -->
    <path d="M204 30c5-8 12-14 20-16 2-1 4 1 3 3-2 5-7 9-12 11 5 1 10 4 13 9 1 2-1 4-3 3-6-2-11-6-15-10h-6z"/>
    <!-- Left flourish -->
    <path d="M180 30c-8-6-18-10-28-10-3 0-5 3-3 6 2 3 6 4 9 3-4 2-7 6-8 11-1 3 3 5 5 3 5-4 9-9 12-14h13z"/>
    <!-- Right flourish -->
    <path d="M220 30c8-6 18-10 28-10 3 0 5 3 3 6-2 3-6 4-9 3 4 2 7 6 8 11 1 3-3 5-5 3-5-4-9-9-12-14h-13z"/>
    <!-- Left acanthus leaves -->
    <path d="M160 30c-10-8-22-13-35-13-4 0-6 5-3 8 3 3 8 4 12 2-5 3-9 8-10 14-1 4 4 7 7 4 6-5 11-11 15-18h14z"/>
    <!-- Right acanthus leaves -->
    <path d="M240 30c10-8 22-13 35-13 4 0 6 5 3 8-3 3-8 4-12 2 5 3 9 8 10 14 1 4-4 7-7 4-6-5-11-11-15-18h-14z"/>
    <!-- Outer left vine -->
    <path d="M140 30c-12-10-27-16-43-16-5 0-8 6-4 10 4 4 10 5 15 2-6 4-11 10-12 17-1 5 5 9 9 5 7-6 13-13 18-21h17z"/>
    <!-- Outer right vine -->
    <path d="M260 30c12-10 27-16 43-16 5 0 8 6 4 10-4 4-10 5-15 2 6 4 11 10 12 17 1 5-5 9-9 5-7-6-13-13-18-21h-17z"/>
    <!-- Left terminal -->
    <ellipse cx="85" cy="30" rx="6" ry="4"/>
    <circle cx="75" cy="28" r="2.5"/>
    <circle cx="78" cy="34" r="2"/>
    <!-- Right terminal -->
    <ellipse cx="315" cy="30" rx="6" ry="4"/>
    <circle cx="325" cy="28" r="2.5"/>
    <circle cx="322" cy="34" r="2"/>
    <!-- Center dots -->
    <circle cx="200" cy="24" r="2"/>
    <circle cx="200" cy="36" r="2"/>
    <circle cx="192" cy="30" r="1.5"/>
    <circle cx="208" cy="30" r="1.5"/>
  </g>
</svg>